<?xml version="1.0" encoding="UTF-8" standalone="no"?>
<!-- Created with Inkscape (http://www.inkscape.org/) -->

<svg
   width="512"
   height="512"
   viewBox="0 0 512 512"
   version="1.1"
   id="svg1"
   sodipodi:docname="logos-bg-black-outline.svg"
   xmlns:inkscape="http://www.inkscape.org/namespaces/inkscape"
   xmlns:sodipodi="http://sodipodi.sourceforge.net/DTD/sodipodi-0.dtd"
   xmlns:xlink="http://www.w3.org/1999/xlink"
   xmlns="http://www.w3.org/2000/svg"
   xmlns:svg="http://www.w3.org/2000/svg">
  <sodipodi:namedview
     id="namedview1"
     pagecolor="#505050"
     bordercolor="#eeeeee"
     borderopacity="1"
     inkscape:showpageshadow="0"
     inkscape:pageopacity="0"
     inkscape:pagecheckerboard="0"
     inkscape:deskcolor="#505050" />
  <defs
     id="defs1">
    <linearGradient
       id="linearGradient16">
      <stop
         style="stop-color:#59fbbf;stop-opacity:1;"
         offset="0"
         id="stop16" />
      <stop
         style="stop-color:#59fbbf;stop-opacity:1;"
         offset="1"
         id="stop17" />
    </linearGradient>
    <linearGradient
       id="linearGradient12">
      <stop
         style="stop-color:#026646;stop-opacity:1;"
         offset="0"
         id="stop12" />
      <stop
         style="stop-color:#59fbbf;stop-opacity:1;"
         offset="1"
         id="stop14" />
    </linearGradient>
    <linearGradient
       xlink:href="#linearGradient12"
       id="linearGradient15"
       gradientUnits="userSpaceOnUse"
       x1="66.469772"
       y1="245.75803"
       x2="290.86978"
       y2="245.75803" />
    <linearGradient
       xlink:href="#linearGradient16"
       id="linearGradient17"
       x1="313.34543"
       y1="244.49579"
       x2="441.62265"
       y2="244.49579"
       gradientUnits="userSpaceOnUse" />
  </defs>
  <path
     id="rect28"
     style="fill:#010000;fill-rule:evenodd;stroke:#754949;stroke-width:0;stroke-linecap:square;stroke-opacity:0.998255;paint-order:markers stroke fill"
     d="M 0,0 H 512 V 512 H 0 Z" />
  <path
     style="fill:#060000;fill-opacity:1;fill-rule:evenodd;stroke:#754949;stroke-width:0;stroke-linecap:square;stroke-opacity:0.998255;paint-order:markers stroke fill"
     d="M 104.93132,130.91672 V 381.08328"
     id="path43" />
  <path
     style="fill:#030303;fill-opacity:1;fill-rule:evenodd;stroke:#754949;stroke-width:0;stroke-linecap:square;stroke-opacity:0.998255;paint-order:markers stroke fill"
     d="M 116.35263,133.35801 V 366.95828"
     id="path44" />
  <path
     style="fill:#030303;fill-opacity:1;fill-rule:evenodd;stroke:#754949;stroke-width:0;stroke-linecap:square;stroke-opacity:0.998255;paint-order:markers stroke fill"
     d="M 104.93132,153.59405 V 361.72511"
     id="path46" />
  <path
     style="fill:#030303;fill-opacity:1;fill-rule:evenodd;stroke:#000000;stroke-width:0;stroke-linecap:square;stroke-opacity:0.998255;paint-order:markers stroke fill"
     d="m 100.01516,166.92426 v 66.73485"
     id="path52" />
  <path
     style="fill:#030303;fill-opacity:1;fill-rule:evenodd;stroke:#000000;stroke-width:0;stroke-linecap:square;stroke-opacity:0.998255;paint-order:markers stroke fill"
     d="m 108.90152,161.00001 v 62.90152"
     id="path55" />
  <path
     id="text62"
     style="font-size:400px;font-family:oblong;-inkscape-font-specification:'oblong, Normal';text-align:end;text-anchor:end;fill:url(#linearGradient15);fill-rule:evenodd;stroke:#000000;stroke-width:0;stroke-linecap:square;stroke-opacity:0.998255;paint-order:markers stroke fill"
     d="m 178.86914,133.35742 c -31.46663,0 -57.99963,10.93414 -79.599609,32.80078 -21.866645,21.86665 -32.798828,48.39964 -32.798828,79.59961 0,31.19997 10.932183,57.73297 32.798828,79.59961 21.599979,21.86665 48.132979,32.80078 79.599609,32.80078 21.03148,0 39.87366,-4.98974 56.54297,-14.92578 v 14.92578 h 55.45703 v -112.40039 -3.27929 h -0.0723 C 290.0508,212.70047 279.16353,187.25146 258.07027,166.1582 236.47029,144.29156 210.06907,133.35742 178.8691,133.35742 Z m 0,57.60156 c 15.19999,0 28.0004,5.33335 38.40039,16 10.93332,10.39999 16.40039,23.33218 16.40039,38.79883 0,14.93332 -5.46707,27.86746 -16.40039,38.80078 -10.39999,10.66666 -23.2004,16 -38.40039,16 -15.46665,0 -28.39884,-5.33334 -38.79883,-16 -10.93332,-10.93332 -16.40039,-23.86746 -16.40039,-38.80078 0,-15.46665 5.46707,-28.39884 16.40039,-38.79883 10.39999,-10.66665 23.33218,-16 38.79883,-16 z" />
  <path
     id="rect4"
     style="fill:#010101;fill-rule:evenodd;stroke:#000000;stroke-width:0;stroke-linecap:square;stroke-opacity:0.998255;paint-order:markers stroke fill"
     d="M 1.6148498,5.5358286 H 510.38514 V 130.50434 H 1.6148498 Z" />
  <path
     id="rect3"
     style="fill:#090909;fill-rule:evenodd;stroke:#000000;stroke-width:0;stroke-linecap:square;stroke-opacity:0.998255;paint-order:markers stroke fill"
     d="M 0,358.48724 H 512 V 512.94339 H 0 Z" />
  <path
     style="fill:url(#linearGradient17);fill-opacity:1;fill-rule:evenodd;stroke:#000000;stroke-width:0;stroke-linecap:square;stroke-opacity:0.998255;paint-order:markers stroke fill"
     d="m 378.86652,130.50434 h 62.17231 l -65.52109,113.48585 66.10491,114.49705 h -62.1723 L 313.34544,243.99019 Z"
     id="path11" />
  <rect
     style="fill:#59fbbf;fill-rule:evenodd;stroke:#000000;stroke-width:0;stroke-linecap:square;stroke-opacity:0.998255;paint-order:markers stroke fill"
     id="rect7"
     width="512"
     height="23.547785"
     x="-512"
     y="0"
     transform="rotate(-90)" />
  <rect
     style="fill:#59fbbf;fill-rule:evenodd;stroke:#000000;stroke-width:0;stroke-linecap:square;stroke-opacity:0.998255;paint-order:markers stroke fill"
     id="rect1"
     width="512"
     height="23.547785"
     x="-512"
     y="488.45221"
     transform="rotate(-90)" />
  <rect
     style="fill:#59fbbf;fill-rule:evenodd;stroke:#000000;stroke-width:0;stroke-linecap:square;stroke-opacity:0.998255;paint-order:markers stroke fill"
     id="rect5"
     width="512"
     height="23.547785"
     x="1.5258789e-05"
     y="0" />
  <rect
     style="fill:#59fbbf;fill-rule:evenodd;stroke:#000000;stroke-width:0;stroke-linecap:square;stroke-opacity:0.998255;paint-order:markers stroke fill"
     id="rect6"
     width="512"
     height="23.547785"
     x="7.6293945e-06"
     y="488.45221" />
</svg>
